<svg xmlns="http://www.w3.org/2000/svg" width="752pt" height="752pt" version="1.1" viewBox="0 0 752 752">
    <path fill="white" fill-opacity=".6" d="m573.72 191.3c-0.25 0.039062-0.49609 0.089843-0.74219 0.14844-84.289 17.867-150.86 52.41-254.4 41.438-2.6836-0.29297-5.3672 0.57031-7.375 2.3789-2.0078 1.8125-3.1484 4.3906-3.1328 7.0938l-0.14453 200.98c-8.5977-5.2969-18.965-8.2812-30.191-8.5859-18.277-0.48438-39.004 4.8398-58.605 15.688-19.598 10.848-34.73 25.41-43.512 40.996-8.7773 15.586-11.188 33.406-2.5156 47.801 8.6797 14.414 25.512 20.82 43.805 21.312 18.297 0.49219 38.859-4.6914 58.461-15.539 30.219-16.727 50.602-41.793 51.5-67.043 0.003906-0.14844 0.003906-0.29688 0-0.44531l0.14844-153.77c104.69 11.523 165.01-23.504 238.42-40.105v112.18c-8.6133-5.3164-19.074-8.2812-30.34-8.582-18.293-0.48828-38.855 4.8516-58.457 15.688-19.617 10.844-34.719 25.258-43.508 40.844-8.793 15.59-11.348 33.406-2.6641 47.805 8.6797 14.395 25.531 20.965 43.805 21.457 18.273 0.49219 38.84-4.6953 58.457-15.539 30.793-17.02 51.52-42.832 51.652-68.52v-228.21c0.019532-2.7305-1.1406-5.3398-3.1797-7.1523-2.043-1.8164-4.7695-2.6602-7.4766-2.3203zm-8.2891 21.605v51.355c-79.188 16.977-135.5 52.418-238.42 40.551v-52.539c97.387 7.6992 164.56-22.02 238.42-39.367zm-30.93 193.28c14.152 0.37891 23.969 5.1602 28.266 12.285 0.71094 1.1758 1.2031 2.4219 1.6289 3.6992 0.38672 1.1602 0.71875 2.4219 0.88672 3.6992 0.035156 0.29688 0.085938 0.59375 0.14844 0.88672v2.2227c-0.074219 14.516-15.172 37.266-41.734 51.945-16.922 9.3555-34.684 13.551-48.836 13.172-14.156-0.38281-23.82-5.1523-28.121-12.285-4.3008-7.1289-3.8164-16.961 2.8125-28.711 6.625-11.75 19.336-24.238 36.258-33.594 16.938-9.3633 34.531-13.695 48.691-13.32zm-257.36 47.508c14.133 0.37891 23.828 5.1562 28.121 12.281 1.1367 1.8906 1.9414 3.8828 2.3672 6.0703 0.058594 0.5 0.15625 0.99219 0.29688 1.4805v3.9922c-0.68359 14.535-15.676 36.57-41.59 50.91-16.891 9.3516-34.652 13.555-48.836 13.172-14.184-0.38281-23.98-5.0195-28.266-12.133-4.2969-7.1328-3.6602-17.109 2.957-28.859 6.6211-11.75 19.215-24.242 36.113-33.594 16.891-9.3516 34.703-13.695 48.836-13.32z"/>
</svg>
